# xmcd
#
# Track frame offsets:
#   150
#   10629
#   30851
#   44201
#   58603
#   70937
#   91294
#   107519
#   125511
#   134498
#   141860
#   156582
#   168294
#   183416
#   199775
#   219200
#   226134
#   244824
#
# Disc length: 3400 seconds
#
# Revision: 0
# Processed by: cddbd v1.5PL3 Copyright (c) Steve Scherf et al.
# Submitted via: Click'N Design 3D 5.1
#
DISCID=f70d4612
DTITLE=Oh Brother Where Art Thou - Oh Brother 
DYEAR=2000
DGENRE=Country
TTITLE0=Big Rock Candy Mountain
TTITLE1=You Are My Sunshine
TTITLE2=Down To The River To Pray
TTITLE3=I Are A Man Of Constant Sorrow
TTITLE4=Hard Time Killing Floor Blues
TTITLE5=I Am A Man Of Constant Sorrow
TTITLE6=Keep On The Sunny Side
TTITLE7=I Will Fly Away
TTITLE8=Didnt Leave
TTITLE9=In The Higways
TTITLE10=I Am Weary
TTITLE11=My My 
TTITLE12=O Death
TTITLE13=In The Jailhouse
TTITLE14=My
TTITLE15=Indian War Hoop
TTITLE16=Lonesome Valley
TTITLE17=Angel Band
EXTD=
EXTT0=
EXTT1=
EXTT2=
EXTT3=
EXTT4=
EXTT5=
EXTT6=
EXTT7=
EXTT8=
EXTT9=
EXTT10=
EXTT11=
EXTT12=
EXTT13=
EXTT14=
EXTT15=
EXTT16=
EXTT17=
PLAYORDER=
